<svg width="42" height="30" viewBox="0 0 42 30" fill="none" xmlns="http://www.w3.org/2000/svg">
<path d="M32.1694 3.04438C32.6429 2.51376 32.644 1.71258 32.1718 1.18072C31.6142 0.552587 30.6331 0.552587 30.0755 1.18072L22.9957 9.15604C22.2 10.0524 20.8 10.0524 20.0043 9.15604L12.9245 1.18072C12.3669 0.552587 11.3858 0.552586 10.8282 1.18072C10.356 1.71258 10.3571 2.51376 10.8306 3.04438L20.0078 13.3279C20.803 14.219 22.197 14.219 22.9922 13.3279L32.1694 3.04438Z" fill="white"/>
<path d="M40.7879 8.14332C41.4764 7.38287 41.4779 6.22485 40.7915 5.4626L40.0598 4.65021C39.2654 3.76809 37.882 3.76809 37.0875 4.65021L22.4862 20.8634C21.6917 21.7455 20.3083 21.7455 19.5138 20.8634L4.91247 4.65021C4.11805 3.76809 2.73458 3.76809 1.94016 4.65021L1.20854 5.4626C0.522068 6.22485 0.52359 7.38287 1.21205 8.14331L19.5174 28.3624C20.3113 29.2393 21.6887 29.2393 22.4826 28.3624L40.7879 8.14332Z" fill="white"/>
</svg>
