<svg width="50" height="50" viewBox="0 0 50 50" fill="none" xmlns="http://www.w3.org/2000/svg">
<path d="M42.6777 7.32231C32.9146 -2.44077 17.0856 -2.44077 7.32239 7.32231C-2.4408 17.0854 -2.4408 32.9144 7.32239 42.6777C17.0855 52.4408 32.9145 52.4408 42.6777 42.6777C52.4408 32.9144 52.4408 17.0854 42.6777 7.32231ZM37.4749 31.0283C38.009 31.5624 38.009 32.4283 37.4749 32.9623L32.9625 37.4748C32.4284 38.0089 31.5625 38.0087 31.0283 37.4748L25.0001 31.4463L18.9716 37.4748C18.4377 38.009 17.5718 38.0087 17.0377 37.4748L12.5253 32.9623C11.9912 32.4283 11.9913 31.5625 12.5253 31.0285L18.5537 24.9999L12.5253 18.9715C11.9913 18.4374 11.9913 17.5715 12.5253 17.0375L17.0378 12.5251C17.5719 11.991 18.4378 11.991 18.9716 12.5251L25.0001 18.5536L31.0285 12.5251C31.5625 11.991 32.4284 11.991 32.9625 12.5251L37.4749 17.0375C38.0089 17.5716 38.009 18.4375 37.4749 18.9715L31.4465 24.9999L37.4749 31.0283Z" fill="white"/>
</svg>
