<svg width="60" height="60" viewBox="0 0 60 60" fill="none" xmlns="http://www.w3.org/2000/svg">
<path d="M50.7922 4.97617C46.9673 2.67632 42.8675 0.976436 38.5801 0.00983324C38.5419 6.02689e-05 38.5024 0.00635833 38.467 0.0278565C38.4316 0.0493547 38.4021 0.0849894 38.3826 0.129825C37.8576 1.35974 37.2726 2.96297 36.8626 4.22956C32.3155 3.32374 27.6927 3.32374 23.1455 4.22956C22.6889 2.82585 22.1739 1.45715 21.6031 0.129825C21.5837 0.0844374 21.5545 0.0479966 21.5192 0.025366C21.4839 0.00273537 21.4443 -0.00500905 21.4056 0.0031667C17.1207 0.96977 13.0208 2.66966 9.19344 4.97284C9.16051 4.99125 9.13259 5.02266 9.11344 5.06283C1.33366 20.3118 -0.798775 35.1842 0.248694 49.8699C0.251609 49.9059 0.259983 49.9407 0.273306 49.9722C0.286629 50.0037 0.304623 50.0313 0.326192 50.0532C4.86704 54.461 9.93176 57.8188 15.3083 59.9859C15.3457 60.0013 15.3858 60.0012 15.4233 59.9858C15.4608 59.9703 15.4938 59.9402 15.5183 59.8992C16.6732 57.8327 17.7032 55.6495 18.5832 53.3563C18.6357 53.223 18.5857 53.063 18.4807 53.0097C16.8657 52.1988 15.301 51.2203 13.8008 50.0832C13.7738 50.0627 13.7511 50.0336 13.7347 49.9985C13.7183 49.9634 13.7086 49.9234 13.7066 49.8821C13.7047 49.8408 13.7104 49.7995 13.7233 49.7619C13.7363 49.7242 13.756 49.6915 13.7808 49.6666C14.0958 49.3566 14.4108 49.0333 14.7108 48.71C14.7378 48.6809 14.7703 48.6624 14.8047 48.6565C14.8392 48.6506 14.8741 48.6576 14.9058 48.6766C24.723 54.5563 35.3552 54.5563 45.0574 48.6766C45.0891 48.6565 45.1245 48.6486 45.1594 48.6539C45.1943 48.6592 45.2274 48.6775 45.2549 48.7066C45.5549 49.0333 45.8674 49.3566 46.1849 49.6666C46.2099 49.691 46.23 49.7233 46.2433 49.7606C46.2567 49.7979 46.2629 49.839 46.2614 49.8803C46.2599 49.9215 46.2508 49.9617 46.2348 49.9971C46.2188 50.0325 46.1965 50.0621 46.1699 50.0832C44.6749 51.2298 43.12 52.1997 41.4875 53.0064C41.4624 53.0185 41.4396 53.0376 41.4205 53.0625C41.4014 53.0873 41.3865 53.1173 41.3768 53.1504C41.3671 53.1835 41.3628 53.219 41.3643 53.2545C41.3657 53.2901 41.3727 53.3248 41.385 53.3563C42.285 55.6462 43.3149 57.826 44.4474 59.8959C44.471 59.9384 44.5038 59.9701 44.5413 59.9868C44.5789 60.0035 44.6195 60.0044 44.6574 59.9892C50.0431 57.8282 55.1161 54.4688 59.662 50.0532C59.6842 50.0325 59.7028 50.0058 59.7166 49.9747C59.7304 49.9437 59.739 49.9091 59.742 49.8732C60.9919 32.8943 57.647 18.142 50.8697 5.0695C50.8531 5.02702 50.8256 4.9939 50.7922 4.97617ZM20.0506 40.9271C17.0957 40.9271 14.6583 37.364 14.6583 32.9943C14.6583 28.6213 17.0482 25.0615 20.0506 25.0615C23.0755 25.0615 25.4905 28.6513 25.443 32.9943C25.443 37.3674 23.053 40.9271 20.0506 40.9271V40.9271ZM39.9875 40.9271C37.0301 40.9271 34.5952 37.364 34.5952 32.9943C34.5952 28.6213 36.9826 25.0615 39.9875 25.0615C43.0125 25.0615 45.4274 28.6513 45.3799 32.9943C45.3799 37.3674 43.015 40.9271 39.9875 40.9271V40.9271Z" fill="white"/>
</svg>
