<svg width="70" height="60" viewBox="0 0 70 60" fill="none" xmlns="http://www.w3.org/2000/svg">
<g clip-path="url(#clip0_873_183)">
<path d="M59.2576 4.97617C54.7952 2.67632 50.0121 0.976436 45.0101 0.00983324C44.9655 6.02677e-05 44.9195 0.00635833 44.8782 0.0278565C44.8369 0.0493547 44.8024 0.0849894 44.7797 0.129825C44.1672 1.35974 43.4847 2.96297 43.0064 4.22956C37.7014 3.32374 32.3081 3.32374 27.0031 4.22956C26.4704 2.82585 25.8695 1.45715 25.2036 0.129825C25.181 0.0844374 25.1469 0.0479966 25.1057 0.025366C25.0645 0.00273537 25.0183 -0.00500905 24.9732 0.0031667C19.9741 0.96977 15.1909 2.66966 10.7257 4.97284C10.6873 4.99125 10.6547 5.02266 10.6323 5.06283C1.55594 20.3118 -0.931904 35.1842 0.290143 49.8699C0.293544 49.9059 0.303314 49.9407 0.318857 49.9722C0.334401 50.0037 0.355394 50.0313 0.380558 50.0532C5.67821 54.461 11.5871 57.8188 17.8597 59.9859C17.9033 60.0013 17.9501 60.0012 17.9938 59.9858C18.0376 59.9703 18.0761 59.9402 18.1047 59.8992C19.4521 57.8327 20.6537 55.6495 21.6804 53.3563C21.7416 53.223 21.6833 53.063 21.5608 53.0097C19.6766 52.1988 17.8512 51.2203 16.1009 50.0832C16.0694 50.0627 16.043 50.0336 16.0238 49.9985C16.0047 49.9634 15.9934 49.9234 15.991 49.8821C15.9888 49.8408 15.9955 49.7995 16.0105 49.7619C16.0257 49.7242 16.0487 49.6915 16.0776 49.6666C16.4451 49.3566 16.8126 49.0333 17.1626 48.71C17.1941 48.6809 17.232 48.6624 17.2722 48.6565C17.3124 48.6506 17.3531 48.6576 17.3901 48.6766C28.8435 54.5563 41.2477 54.5563 52.567 48.6766C52.6039 48.6565 52.6452 48.6486 52.686 48.6539C52.7267 48.6592 52.7653 48.6775 52.7974 48.7066C53.1474 49.0333 53.512 49.3566 53.8824 49.6666C53.9115 49.691 53.935 49.7233 53.9505 49.7606C53.9661 49.7979 53.9734 49.839 53.9716 49.8803C53.9699 49.9215 53.9593 49.9617 53.9406 49.9971C53.9219 50.0325 53.8959 50.0621 53.8649 50.0832C52.1207 51.2298 50.3067 52.1997 48.4021 53.0064C48.3728 53.0185 48.3462 53.0376 48.3239 53.0625C48.3016 53.0873 48.2843 53.1173 48.2729 53.1504C48.2616 53.1835 48.2566 53.219 48.2583 53.2545C48.26 53.2901 48.2681 53.3248 48.2825 53.3563C49.3325 55.6462 50.534 57.826 51.8553 59.8959C51.8828 59.9384 51.9211 59.9701 51.9649 59.9868C52.0087 60.0035 52.0561 60.0044 52.1003 59.9892C58.3836 57.8282 64.3021 54.4688 69.6057 50.0532C69.6316 50.0325 69.6533 50.0058 69.6694 49.9747C69.6855 49.9437 69.6955 49.9091 69.699 49.8732C71.1572 32.8943 67.2548 18.142 59.348 5.0695C59.3286 5.02702 59.2965 4.9939 59.2576 4.97617ZM23.3924 40.9271C19.945 40.9271 17.1014 37.364 17.1014 32.9943C17.1014 28.6213 19.8896 25.0615 23.3924 25.0615C26.9214 25.0615 29.7389 28.6513 29.6835 32.9943C29.6835 37.3674 26.8952 40.9271 23.3924 40.9271ZM46.6521 40.9271C43.2018 40.9271 40.3611 37.364 40.3611 32.9943C40.3611 28.6213 43.1464 25.0615 46.6521 25.0615C50.1812 25.0615 52.9986 28.6513 52.9432 32.9943C52.9432 37.3674 50.1842 40.9271 46.6521 40.9271Z" fill="#88B8FF"/>
</g>
<defs>
<clipPath id="clip0_873_183">
<rect width="70" height="60" fill="white"/>
</clipPath>
</defs>
</svg>
