<svg width="62" height="61" viewBox="0 0 62 61" fill="none" xmlns="http://www.w3.org/2000/svg">
<path d="M30.8398 20.3288C25.1755 20.3288 20.5529 24.8992 20.5529 30.4997C20.5529 36.1002 25.1755 40.6706 30.8398 40.6706C36.5042 40.6706 41.1267 36.1002 41.1267 30.4997C41.1267 24.8992 36.5042 20.3288 30.8398 20.3288ZM61.6928 30.4997C61.6928 26.2879 61.7314 22.1142 61.4922 17.9101C61.2529 13.0268 60.1262 8.69293 56.5146 5.12205C52.8953 1.54355 48.5197 0.437184 43.5808 0.200651C39.3209 -0.035881 35.0997 0.00226952 30.8475 0.00226952C26.5877 0.00226952 22.3665 -0.035881 18.1143 0.200651C13.1754 0.437184 8.79207 1.55118 5.18047 5.12205C1.56115 8.70056 0.44217 13.0268 0.20294 17.9101C-0.0362902 22.1219 0.00229541 26.2955 0.00229541 30.4997C0.00229541 34.7039 -0.0362902 38.8852 0.20294 43.0893C0.44217 47.9726 1.56887 52.3065 5.18047 55.8773C8.79979 59.4559 13.1754 60.5622 18.1143 60.7987C22.3742 61.0353 26.5954 60.9971 30.8475 60.9971C35.1074 60.9971 39.3286 61.0353 43.5808 60.7987C48.5197 60.5622 52.903 59.4482 56.5146 55.8773C60.1339 52.2988 61.2529 47.9726 61.4922 43.0893C61.7391 38.8852 61.6928 34.7115 61.6928 30.4997V30.4997ZM30.8398 46.149C22.0809 46.149 15.0121 39.1598 15.0121 30.4997C15.0121 21.8396 22.0809 14.8504 30.8398 14.8504C39.5987 14.8504 46.6676 21.8396 46.6676 30.4997C46.6676 39.1598 39.5987 46.149 30.8398 46.149ZM47.3158 17.8643C45.2708 17.8643 43.6193 16.2314 43.6193 14.2095C43.6193 12.1875 45.2708 10.5547 47.3158 10.5547C49.3609 10.5547 51.0123 12.1875 51.0123 14.2095C51.0129 14.6896 50.9177 15.1651 50.7322 15.6088C50.5466 16.0525 50.2744 16.4557 49.931 16.7952C49.5876 17.1347 49.1799 17.4039 48.7311 17.5873C48.2824 17.7708 47.8014 17.8649 47.3158 17.8643V17.8643Z" fill="#88B8FF"/>
</svg>
