<svg width="120" height="104" viewBox="0 0 120 104" fill="none" xmlns="http://www.w3.org/2000/svg">
<path d="M58.253 21.7257L45.2461 0.142822H120L109.709 16.2943L102.991 26.2996L79.4071 57.0302L68.2583 38.4489L80.8364 21.7257H58.253Z" fill="white"/>
<path d="M24.6633 90.4766H1.36523L20.2324 0H42.387L79.2637 60.8895L110.423 19.0101L91.2677 90.4766H68.5438L37.3844 32.5887L24.6633 90.4766Z" fill="#88B8FF"/>
<path d="M55.9045 70.9955L49.2703 58.5759L40.6322 71.1631L55.9045 70.9955Z" fill="white"/>
<path d="M54.7735 83.6005L59.1329 77.4521L55.8454 70.8772L40.6322 71.1631L33.4049 81.7401L54.7735 83.6005Z" fill="white"/>
<path d="M33.6905 81.3114L27.0703 90.602H49.7297L59.1329 77.4521L33.6905 81.3114Z" fill="white"/>
<path d="M55.9045 70.9955L49.2703 58.5759L47.4678 61.4457L40.3447 71.6276L55.9045 70.9955Z" fill="white"/>
<path d="M8.43623 103.884H6.4471L3.18829 97.1087L1.98915 103.884H0L1.74933 93.9967H3.72437L6.99729 100.787L8.19641 93.9967H10.1715L8.43623 103.884ZM13.8302 95.5531L13.3789 98.1131H16.6941L16.426 99.6405H13.1107L12.6453 102.314H16.3836L16.1016 103.884H10.3739L12.1233 93.9967H17.8367L17.5687 95.5531H13.8302ZM25.7119 94.0115L25.4298 95.5672H21.3386L20.8871 98.1555H24.019L23.751 99.6836H20.6051L19.8715 103.884H17.8823L19.6316 94.0115H25.7119ZM33.8134 94.0115L33.5313 95.5672H30.9214L29.4543 103.884H27.4651L28.9323 95.5672H26.3083L26.5904 94.0115H33.8134ZM43.0841 94.0115L38.6262 100.447L38.0195 103.884H36.0304L36.6512 100.447L34.4363 94.0115H36.6652L37.9773 98.495L40.8551 94.0115H43.0841ZM49.9874 103.984C49 103.984 48.1863 103.761 47.5468 103.319C46.9166 102.865 46.6014 102.234 46.6014 101.423C46.6014 101.338 46.6108 101.211 46.6297 101.041H48.6472C48.6095 101.437 48.713 101.762 48.9576 102.017C49.2115 102.272 49.5783 102.399 50.0579 102.399C50.5376 102.399 50.9138 102.3 51.1865 102.102C51.4686 101.894 51.6098 101.603 51.6098 101.225C51.6098 100.876 51.464 100.598 51.1724 100.391C50.8903 100.183 50.4435 99.9518 49.8322 99.6977C49.2679 99.4615 48.8071 99.2446 48.4496 99.0469C48.1017 98.8486 47.8008 98.5752 47.5468 98.226C47.3023 97.868 47.18 97.42 47.18 96.8829C47.18 96.27 47.3352 95.7365 47.6455 95.2841C47.9653 94.8317 48.3979 94.4825 48.9435 94.2374C49.4983 93.9922 50.1284 93.8696 50.8339 93.8696C51.5299 93.8696 52.1317 93.9878 52.6396 94.2233C53.1569 94.4498 53.5425 94.7752 53.7964 95.1994C54.0598 95.6236 54.1727 96.1184 54.135 96.6845H52.033L52.0471 96.5292C52.0471 96.218 51.9296 95.9631 51.6944 95.7655C51.4686 95.5672 51.1489 95.4684 50.7351 95.4684C50.2931 95.4684 49.9356 95.5716 49.663 95.7796C49.3902 95.9869 49.2538 96.27 49.2538 96.628C49.2538 96.8635 49.329 97.0708 49.4795 97.2506C49.6394 97.42 49.8322 97.5708 50.0579 97.703C50.2837 97.8256 50.6081 97.9861 51.0313 98.1837C51.5863 98.4288 52.0424 98.6599 52.3998 98.8768C52.7571 99.0937 53.0628 99.3812 53.3168 99.7401C53.5707 100.098 53.6976 100.536 53.6976 101.055C53.6976 101.621 53.5425 102.126 53.2321 102.569C52.9311 103.012 52.4985 103.361 51.9342 103.616C51.3793 103.861 50.7304 103.984 49.9874 103.984ZM58.3155 95.5531L57.8641 98.1131H61.1794L60.9112 99.6405H57.596L57.1304 102.314H60.8689L60.5868 103.884H54.8592L56.6085 93.9967H62.322L62.0539 95.5531H58.3155ZM65.4571 94.0115L66.7691 101.862L70.8603 94.0115H72.9624L67.6156 103.884H65.2174L63.341 94.0115H65.4571ZM75.8536 95.5531L75.402 98.1131H78.7174L78.449 99.6405H75.1339L74.6683 102.314H78.4065L78.1244 103.884H72.3971L74.1464 93.9967H79.86L79.5916 95.5531H75.8536ZM88.3415 103.884H86.3527L83.0938 97.1087L81.8943 103.884H79.9055L81.6547 93.9967H83.6299L86.9032 100.787L88.1019 93.9967H90.0771L88.3415 103.884Z" fill="white"/>
</svg>
