<svg width="617" height="266" viewBox="0 0 617 266" fill="none" xmlns="http://www.w3.org/2000/svg">
<path d="M616.736 50.5741V214.243L602.297 215.434L593.541 140.012V216.163L579.141 217.354V47.6172L593.541 48.8076L602.988 124.267V49.4605L616.736 50.5741Z" fill="#88B8FF"/>
<path d="M542.543 44.5078L572.919 46.9655V81.1816L560.976 80.6056V113.362L572.151 113.593V146.119H560.976V184.099L574.071 183.446V217.624L542.543 220.235V44.5078Z" fill="#88B8FF"/>
<path d="M539.391 44.2385L529.714 221.463L499.722 223.921L487.895 39.9375L509.323 41.704C511.729 91.7288 513.457 133.971 514.507 168.43C515.557 133.689 516.645 102.865 517.771 75.9585L519.115 42.6257L539.391 44.2385Z" fill="#88B8FF"/>
<path d="M449.492 36.8672L485.36 39.9393V77.0355L471.304 76.3443V111.943L484.476 112.173V147.465H471.304V188.747L486.665 187.979V224.998L449.492 228.07V36.8672Z" fill="#88B8FF"/>
<path d="M440.661 94.4293L419.386 93.7765V79.2222C419.589 74.8649 419.306 70.4985 418.542 66.2039C418.004 64.3222 417.082 63.3238 415.777 63.247C414.471 63.1702 413.281 64.3607 412.551 66.8568C411.687 70.6329 411.325 74.5066 411.476 78.3774C411.336 83.3868 411.748 88.3963 412.704 93.3157C414.066 97.7875 416.312 101.94 419.31 105.527C429.601 119.122 436.014 130.105 438.511 138.592C441.007 147.078 442.351 160.711 442.351 179.566C442.641 189.763 441.92 199.964 440.2 210.019C438.889 216.324 435.995 222.192 431.79 227.07C429.971 229.309 427.723 231.162 425.177 232.521C422.632 233.879 419.84 234.716 416.967 234.98C413.94 235.296 410.881 234.874 408.052 233.75C405.224 232.627 402.709 230.835 400.723 228.529C395.869 223.05 392.731 216.267 391.699 209.021C390.041 197.514 389.321 185.891 389.548 174.267V161.095L411.898 160.557V184.597C411.686 189.353 411.995 194.117 412.82 198.806C413.434 200.879 414.509 201.878 416.084 201.801C417.658 201.724 418.772 200.303 419.54 197.577C420.42 193.673 420.794 189.672 420.654 185.672C420.654 174.152 419.962 166.471 418.503 163.092C415.389 156.86 411.7 150.933 407.482 145.389C403.148 139.456 399.185 133.262 395.616 126.841C393.273 121.708 391.633 116.283 390.739 110.712C387.876 90.7975 388.149 70.558 391.545 50.728C392.873 44.6573 395.942 39.1056 400.377 34.7527C402.309 32.971 404.603 31.6268 407.101 30.8117C409.599 29.9965 412.244 29.7297 414.855 30.0294C420.783 30.4827 426.297 33.2397 430.216 37.7098C434.453 42.367 437.312 48.1108 438.472 54.2993C440.132 65.1093 440.813 76.047 440.508 86.9794L440.661 94.4293Z" fill="#88B8FF"/>
<path d="M365.316 29.9538L346.461 161.25V236.594L321.692 238.63V161.826L302.184 24.7695L327.529 26.8433C331.42 68.2917 333.596 96.0947 334.057 110.252C335.542 87.8767 338.013 60.4578 341.469 27.9954L365.316 29.9538Z" fill="white"/>
<path d="M298.766 24.5768V67.8174L281.831 66.8189V241.932L252.146 244.389V65.4365L233.982 64.5532V19.1621L298.766 24.5768Z" fill="white"/>
<path d="M176.727 14.4766L231.91 19.008V64.4375L209.906 63.3622V107.102L229.529 107.448V150.727L209.906 150.995V247.883L176.919 250.61L176.727 14.4766Z" fill="white"/>
<path d="M105.184 8.60156L164.822 13.4786V61.1353L141.55 60.0218V105.874L163.362 106.296V151.61L141.55 151.917V205.066L167.126 203.76V251.34L105.184 256.563V8.60156Z" fill="white"/>
<path d="M89.8221 7.3731V257.792L55.7981 260.595L34.869 144.391V262.323L0 265.242V0L34.869 2.8417L57.4109 119.891V4.68504L89.8221 7.3731Z" fill="white"/>
</svg>
