<svg width="53" height="61" viewBox="0 0 53 61" fill="none" xmlns="http://www.w3.org/2000/svg">
<path d="M28.1141 0.051471C31.3973 0 34.6618 0.0305013 37.9224 0C38.12 3.89083 39.501 7.85409 42.312 10.6049C45.1174 13.4244 49.0855 14.715 52.9464 15.1515V25.3866C49.3282 25.2665 45.6931 24.504 42.4099 22.9256C40.9799 22.2698 39.6478 21.4253 38.3439 20.5617C38.327 27.9888 38.374 35.4063 38.2969 42.8029C38.1012 46.3563 36.9441 49.8925 34.9045 52.8207C31.6231 57.6952 25.9278 60.873 20.0781 60.9721C16.4901 61.1799 12.9058 60.1886 9.84833 58.3624C4.7814 55.3351 1.21592 49.7934 0.696625 43.8457C0.631213 42.586 0.621168 41.324 0.66652 40.0635C1.11808 35.2271 3.47939 30.6005 7.14459 27.4531C11.299 23.7872 17.1185 22.041 22.5674 23.0743C22.6182 26.8393 22.4695 30.6005 22.4695 34.3655C19.9803 33.5496 17.0715 33.7783 14.8964 35.3091C13.3051 36.3712 12.1026 37.9339 11.474 39.7566C10.9547 41.0453 11.1033 42.4769 11.1334 43.8457C11.7298 48.0167 15.6886 51.5225 19.9144 51.1431C22.716 51.1126 25.4009 49.4655 26.861 47.054C27.3333 46.2095 27.862 45.3459 27.8902 44.3527C28.1367 39.8061 28.0388 35.2786 28.0689 30.732C28.0896 20.4855 28.0388 10.2675 28.116 0.0533773L28.1141 0.051471Z" fill="#88B8FF"/>
</svg>
