<svg width="60" height="60" viewBox="0 0 60 60" fill="none" xmlns="http://www.w3.org/2000/svg">
<path d="M60 7.1171C57.7935 8.31979 55.4232 9.13242 52.9314 9.49973C55.5025 7.60725 57.4261 4.62871 58.3432 1.11987C55.9275 2.88487 53.2838 4.12724 50.5267 4.79297C48.6727 2.35788 46.217 0.743866 43.5409 0.201508C40.8648 -0.34085 38.1179 0.218793 35.7269 1.79355C33.3358 3.3683 31.4343 5.87007 30.3175 8.91043C29.2007 11.9508 28.9312 15.3596 29.5508 18.6077C24.6561 18.3054 19.8678 16.7405 15.4966 14.0144C11.1254 11.2884 7.26902 7.46218 4.17775 2.78414C3.12076 5.02701 2.51299 7.62743 2.51299 10.3969C2.51181 12.89 3.01092 15.345 3.96603 17.5439C4.92114 19.7429 6.30273 21.6178 7.9882 23.0024C6.0335 22.9259 4.12192 22.2762 2.41258 21.1074V21.3024C2.41238 24.7991 3.39566 28.1883 5.19559 30.8947C6.99551 33.6012 9.5012 35.4582 12.2875 36.1508C10.4742 36.7545 8.57308 36.8434 6.72774 36.4109C7.51387 39.4196 9.04517 42.0506 11.1073 43.9356C13.1694 45.8206 15.6591 46.8652 18.2278 46.9231C13.8673 51.1339 8.48204 53.4179 2.93843 53.4079C1.95644 53.4082 0.975274 53.3377 0 53.1966C5.62708 57.6472 12.1774 60.0091 18.8673 60C41.5133 60 53.8932 36.9277 53.8932 16.9174C53.8932 16.2673 53.88 15.6107 53.8563 14.9606C56.2643 12.8184 58.3429 10.1658 59.9947 7.12685L60 7.1171V7.1171Z" fill="white"/>
</svg>
