<svg width="76" height="61" viewBox="0 0 76 61" fill="none" xmlns="http://www.w3.org/2000/svg">
<path d="M38.6867 0.27002H39.1045C42.9636 0.28623 62.517 0.448336 67.7891 2.08019C69.3829 2.57823 70.8353 3.54899 72.001 4.89546C73.1668 6.24194 74.005 7.91697 74.4321 9.75316C74.9063 11.8065 75.2396 14.5245 75.465 17.3289L75.5119 17.8908L75.6152 19.2957L75.6528 19.8577C75.9579 24.7965 75.9955 29.4219 76.0002 30.4324V30.8376C75.9955 31.8859 75.9532 36.8247 75.6152 41.9688L75.5776 42.5362L75.5354 43.0982C75.3006 46.189 74.9532 49.2582 74.4321 51.5168C74.0063 53.3538 73.1685 55.0296 72.0026 56.3763C70.8366 57.723 69.3836 58.6933 67.7891 59.1898C62.3433 60.8757 41.6443 60.9946 38.7759 61H38.1092C36.6586 61 30.6587 60.9675 24.3678 60.719L23.5697 60.6866L23.1613 60.665L22.3585 60.6271L21.5557 60.5893C16.3446 60.3245 11.3823 59.8977 9.09598 59.1844C7.50209 58.6883 6.04943 57.7189 4.88354 56.3732C3.71766 55.0275 2.87948 53.3528 2.45298 51.5168C1.93187 49.2636 1.58446 46.189 1.34973 43.0982L1.31217 42.5308L1.27461 41.9688C1.04292 38.3074 0.91453 34.6383 0.889648 30.9673L0.889648 30.3027C0.899038 29.1409 0.936595 25.1261 1.19011 20.6953L1.22297 20.1387L1.23706 19.8577L1.27461 19.2957L1.3779 17.8908L1.42484 17.3289C1.65019 14.5245 1.98351 11.8011 2.45768 9.75316C2.88346 7.91623 3.72131 6.24041 4.88725 4.8937C6.05318 3.54699 7.50622 2.57673 9.10068 2.08019C11.387 1.37774 16.3493 0.945457 21.5604 0.675282L22.3585 0.637457L23.166 0.605037L23.5697 0.588827L24.3725 0.551002C28.8405 0.385518 33.3103 0.293648 37.7806 0.275423H38.6867V0.27002ZM30.9357 17.6153V43.6493L50.4516 30.6377L30.9357 17.6153Z" fill="#88B8FF"/>
</svg>
